HIERARCHY
ROOT Hips
{
    OFFSET 0.000000 0.000000 0.000000
    CHANNELS 6 Xposition Yposition Zposition Zrotation Xrotation Yrotation
    JOINT Spine
    {
        OFFSET -0.000000 7.236184 0.000000
        CHANNELS 3 Zrotation Xrotation Yrotation
        JOINT Spine1
        {
            OFFSET -0.000000 20.420147 0.000000
            CHANNELS 3 Zrotation Xrotation Yrotation
            JOINT Neck
            {
                OFFSET -0.000000 20.336288 1.848754
                CHANNELS 3 Zrotation Xrotation Yrotation
                JOINT Head
                {
                    OFFSET -0.000000 12.354461 -1.764923
                    CHANNELS 3 Zrotation Xrotation Yrotation
                    End Site
                    {
                        OFFSET -0.000000 22.061537 0.000000
                    }
                }
            }
            JOINT LeftShoulder
            {
                OFFSET 3.573296 18.396038 -0.314103
                CHANNELS 3 Zrotation Xrotation Yrotation
                JOINT LeftArm
                {
                    OFFSET 10.880760 0.000000 0.000000
                    CHANNELS 3 Zrotation Xrotation Yrotation
                    JOINT LeftForeArm
                    {
                        OFFSET 27.185530 0.000000 0.000000
                        CHANNELS 3 Zrotation Xrotation Yrotation
                        JOINT LeftHand
                        {
                            OFFSET 27.825975 0.000000 0.000000
                            CHANNELS 3 Zrotation Xrotation Yrotation
                            End Site
                            {
                                OFFSET 13.236923 0.000000 0.000000
                            }
                        }
                    }
                }
            }
            JOINT RightShoulder
            {
                OFFSET -3.474926 18.396038 -0.314103
                CHANNELS 3 Zrotation Xrotation Yrotation
                JOINT RightArm
                {
                    OFFSET -10.880760 0.000000 0.000000
                    CHANNELS 3 Zrotation Xrotation Yrotation
                    JOINT RightForeArm
                    {
                        OFFSET -27.185530 0.000000 0.000000
                        CHANNELS 3 Zrotation Xrotation Yrotation
                        JOINT RightHand
                        {
                            OFFSET -27.825975 0.000000 0.000000
                            CHANNELS 3 Zrotation Xrotation Yrotation
                            End Site
                            {
                                OFFSET -13.236923 0.000000 0.000000
                            }
                        }
                    }
                }
            }
        }
    }
    JOINT LeftUpLeg
    {
        OFFSET 8.824615 0.000000 0.000000
        CHANNELS 3 Zrotation Xrotation Yrotation
        JOINT LeftLeg
        {
            OFFSET -0.000000 -35.111282 0.000000
            CHANNELS 3 Zrotation Xrotation Yrotation
            JOINT LeftFoot
            {
                OFFSET -0.000000 -42.324711 0.000000
                CHANNELS 3 Zrotation Xrotation Yrotation
                JOINT LeftToeBase
                {
                    OFFSET -0.000000 -5.735999 13.236923
                    CHANNELS 3 Zrotation Xrotation Yrotation
                    End Site
                    {
                        OFFSET -0.000000 0.000000 3.529846
                    }
                }
            }
        }
    }
    JOINT RightUpLeg
    {
        OFFSET -8.824615 0.000000 0.000000
        CHANNELS 3 Zrotation Xrotation Yrotation
        JOINT RightLeg
        {
            OFFSET -0.000000 -35.111282 0.000000
            CHANNELS 3 Zrotation Xrotation Yrotation
            JOINT RightFoot
            {
                OFFSET -0.000000 -42.324711 0.000000
                CHANNELS 3 Zrotation Xrotation Yrotation
                JOINT RightToeBase
                {
                    OFFSET -0.000000 -5.735999 13.236923
                    CHANNELS 3 Zrotation Xrotation Yrotation
                    End Site
                    {
                        OFFSET -0.000000 0.000000 3.529846
                    }
                }
            }
        }
    }
}
MOTION
Frames:    7
Frame Time:    0.008333
1.806048    82.525482    102.059364    1.569015    -11.459365    -162.488693    -3.193665    -16.303469    -1.005016    1.564340    8.227946    -0.659915    1.003263    9.112441    -4.086301    5.074338    -20.276829    -2.724689    -0.502492    16.822199    -0.214556    -46.645748    44.236351    -40.284267    0.871714    -1.562496    -18.449598    18.757038    -1.344858    0.461066    7.099997    18.703314    -6.828598    43.655952    45.080261    34.147511    -0.466499    -13.490468    15.646963    -16.587254    -12.848261    -4.083202    5.087685    -21.757147    2.770097    -1.664445    18.696136    15.751082    -4.726043    -4.466832    -11.271070    -0.493049    -0.452405    0.546974    -5.540337    -4.907449    0.647226    3.466537    2.305031    0.144778    -2.278722    -6.384679    -12.340281    -2.619039    -0.629632    2.835070    
1.775329    82.522285    102.077019    1.626798    -11.454687    -162.368057    -3.192081    -16.281464    -1.005060    1.628768    8.201437    -0.665089    0.972742    9.048901    -4.093830    5.022794    -20.302555    -2.746151    -0.497543    16.827633    -0.167262    -46.906342    44.147171    -40.021610    0.857010    -1.875813    -18.490305    18.871000    -1.663089    0.441100    7.063863    18.682907    -6.805700    43.750221    44.891064    34.084484    -0.375564    -14.174981    16.404394    -16.707609    -13.467654    -4.589432    5.085396    -21.890827    2.740349    -1.663838    18.858831    15.711166    -4.662873    -4.506855    -11.272820    -0.489653    -0.468912    0.543223    -5.499053    -4.912336    0.437523    3.436064    2.324051    0.129705    -2.233434    -6.392023    -12.268262    -2.626760    -0.647995    2.843501    
1.744249    82.518951    102.094742    1.685497    -11.449844    -162.244797    -3.189723    -16.259199    -1.004536    1.692415    8.174342    -0.669640    0.941931    8.985297    -4.101989    4.971477    -20.328436    -2.768144    -0.492986    16.833488    -0.118284    -47.173840    44.052776    -39.751678    0.839716    -2.196810    -18.531771    18.984428    -1.988709    0.426042    7.026889    18.662350    -6.782466    43.840099    44.703762    34.024784    -0.271380    -14.852258    17.185415    -16.851078    -14.081883    -5.091068    5.082869    -22.027002    2.709780    -1.664048    19.024559    15.673367    -4.598136    -4.546934    -11.275127    -0.486211    -0.486571    0.539422    -5.457400    -4.916955    0.226415    3.405618    2.343010    0.114337    -2.187918    -6.399600    -12.197347    -2.634565    -0.665886    2.852020    
1.713013    82.515404    102.112267    1.745064    -11.444807    -162.118408    -3.186033    -16.236784    -1.002750    1.753679    8.146653    -0.673087    0.911423    8.921909    -4.111300    4.921165    -20.353535    -2.791068    -0.489248    16.840408    -0.066859    -47.451538    43.951111    -39.472134    0.817533    -2.524869    -18.571857    19.096918    -2.321543    0.415213    6.988858    18.641569    -6.759269    43.920986    44.523590    33.971836    -0.159390    -15.500994    17.993601    -17.017315    -14.670849    -5.573848    5.080556    -22.165752    2.678126    -1.666579    19.193460    15.640548    -4.531197    -4.586495    -11.278292    -0.482796    -0.506787    0.535652    -5.415350    -4.920919    0.015709    3.375330    2.361713    0.097733    -2.142355    -6.407642    -12.128483    -2.642278    -0.683510    2.860438    
1.681602    82.511559    102.129509    1.805824    -11.439627    -161.987625    -3.180506    -16.214310    -0.999447    1.811386    8.118195    -0.674819    0.881185    8.858871    -4.122260    4.872978    -20.377211    -2.815099    -0.486559    16.848835    -0.012135    -47.744438    43.840019    -39.178596    0.788846    -2.861685    -18.609186    19.208817    -2.663532    0.408554    6.949426    18.620676    -6.735919    43.989445    44.353737    33.928268    -0.043986    -16.108000    18.837061    -17.203690    -15.222039    -6.028855    5.078737    -22.308170    2.644987    -1.672798    19.366680    15.615275    -4.461016    -4.625237    -11.282689    -0.479622    -0.530572    0.532154    -5.372792    -4.924042    -0.194135    3.345420    2.380113    0.079217    -2.096964    -6.416369    -12.062556    -2.649886    -0.700488    2.868742    
1.649741    82.507301    102.146484    1.868592    -11.434321    -161.850220    -3.172650    -16.191448    -0.993995    1.865019    8.088279    -0.674435    0.851329    8.795732    -4.135468    4.826904    -20.399488    -2.840856    -0.485163    16.858807    0.046978    -48.059563    43.716621    -38.864353    0.751348    -3.211405    -18.642376    19.321627    -3.019273    0.405892    6.907949    18.599232    -6.712315    44.043262    44.195770    33.895439    0.072189    -16.667288    19.730518    -17.406662    -15.729918    -6.451480    5.077582    -22.456461    2.610091    -1.683850    19.546734    15.599938    -4.386218    -4.663146    -11.288826    -0.476354    -0.558843    0.528556    -5.329304    -4.926226    -0.404029    3.315946    2.398291    0.057884    -2.051634    -6.425976    -12.000132    -2.657394    -0.716765    2.876934    
1.617067    82.502510    102.163292    1.934404    -11.428756    -161.703339    -3.162067    -16.168142    -0.986033    1.914271    8.056686    -0.671553    0.821982    8.732139    -4.151497    4.782746    -20.420687    -2.869042    -0.484959    16.871290    0.111636    -48.403969    43.576981    -38.522930    0.702871    -3.579120    -18.670206    19.436916    -3.394080    0.407820    6.863750    18.577101    -6.688015    44.079987    44.050697    33.875160    0.187829    -17.177179    20.691101    -17.621841    -16.193333    -6.839127    5.077282    -22.613184    2.573173    -1.700979    19.736685    15.596793    -4.305029    -4.700387    -11.297021    -0.473135    -0.592993    0.525016    -5.284035    -4.927398    -0.616315    3.286301    2.416737    0.032485    -2.005593    -6.436844    -11.940552    -2.664816    -0.732615    2.885032    
